<?xml version="1.0" encoding="UTF-8" standalone="no"?>
<svg
   xmlns:osb="http://www.openswatchbook.org/uri/2009/osb"
   xmlns:dc="http://purl.org/dc/elements/1.1/"
   xmlns:cc="http://creativecommons.org/ns#"
   xmlns:rdf="http://www.w3.org/1999/02/22-rdf-syntax-ns#"
   xmlns:svg="http://www.w3.org/2000/svg"
   xmlns="http://www.w3.org/2000/svg"
   xmlns:sodipodi="http://sodipodi.sourceforge.net/DTD/sodipodi-0.dtd"
   xmlns:inkscape="http://www.inkscape.org/namespaces/inkscape"
   version="1.1"
   x="0px"
   y="0px"
   viewBox="0 0 35.369 100"
   enable-background="new 0 0 35.369 100"
   xml:space="preserve"
   id="svg8"
   sodipodi:docname="icon.svg"
   inkscape:version="0.92.2 (5c3e80d, 2017-08-06)"><metadata
     id="metadata14"><rdf:RDF><cc:Work
         rdf:about=""><dc:format>image/svg+xml</dc:format><dc:type
           rdf:resource="http://purl.org/dc/dcmitype/StillImage" /><dc:title></dc:title></cc:Work></rdf:RDF></metadata><defs
     id="defs12"><linearGradient
       id="linearGradient5974"
       osb:paint="solid"><stop
         style="stop-color:#000000;stop-opacity:1;"
         offset="0"
         id="stop5972" /></linearGradient></defs><sodipodi:namedview
     pagecolor="#ffffff"
     bordercolor="#666666"
     borderopacity="1"
     objecttolerance="10"
     gridtolerance="10"
     guidetolerance="10"
     inkscape:pageopacity="0"
     inkscape:pageshadow="2"
     inkscape:window-width="958"
     inkscape:window-height="991"
     id="namedview10"
     showgrid="false"
     inkscape:zoom="2.36"
     inkscape:cx="-189.04358"
     inkscape:cy="-12.218051"
     inkscape:window-x="952"
     inkscape:window-y="0"
     inkscape:window-maximized="0"
     inkscape:current-layer="svg8" /><rect
     style="fill:#ff2a2a;stroke:none;stroke-width:0.75288969;stroke-opacity:1"
     id="rect3705"
     width="150"
     height="150"
     x="-203.63602"
     y="-25.90946"
     inkscape:export-xdpi="960"
     inkscape:export-ydpi="960" /><g
     id="g6"
     style="fill:#ffffff"
     transform="matrix(-1,0,0,1,-110.95152,-0.90946007)"
     inkscape:export-xdpi="960"
     inkscape:export-ydpi="960"><path
       d="M 35.284,34.106 29.332,25.57 29.324,0.465 C 29.324,0.208 29.115,0 28.857,0 h -8.665 c -0.258,0 -0.465,0.208 -0.465,0.464 l -0.054,25.105 -5.952,8.537 c -0.054,0.078 -0.084,0.172 -0.084,0.267 V 47.33 h 6.03 1.249 l 0.084,1.246 1.118,16.579 0.005,0.075 -0.004,0.074 c -0.239,5.351 -6.068,9.373 -6.943,9.945 -0.663,0.601 -1.158,1.218 -1.539,1.812 v 17.384 c 0,0.181 0.104,0.344 0.268,0.422 0.19,0.091 5.079,2.208 10.98,2.208 0,0 0,0 0.002,0 3.479,0 7.364,-0.745 10.229,-2.215 0.154,-0.081 0.253,-0.239 0.253,-0.415 V 34.374 c 0,-0.096 -0.03,-0.189 -0.085,-0.268 z"
       id="path2"
       style="fill:#ffffff"
       inkscape:connector-curvature="0" /><path
       d="M 11.122,95.025 V 80.892 c 0,0 -0.191,-3.104 2.515,-6 0.223,-0.235 0.462,-0.474 0.725,-0.707 0,0 6.198,-3.911 6.422,-8.941 L 19.667,48.667 H 13.637 10.392 1.118 L 0,65.243 c 0.224,5.03 6.422,8.941 6.422,8.941 3.466,3.074 3.241,6.707 3.241,6.707 v 14.134 c 0,4.19 -9.33,4.19 -9.33,4.19 V 100 h 10.058 10.392 v -0.784 c 0.003,0 -9.661,0 -9.661,-4.191 z"
       id="path4"
       style="fill:#ffffff"
       inkscape:connector-curvature="0" /></g></svg>