<?xml version="1.0" encoding="utf-8"?><!DOCTYPE svg PUBLIC "-//W3C//DTD SVG 1.1//EN" "http://www.w3.org/Graphics/SVG/1.1/DTD/svg11.dtd"><svg version="1.1" xmlns="http://www.w3.org/2000/svg" xmlns:xlink="http://www.w3.org/1999/xlink" x="0px" y="0px" viewBox="0 0 35.369 100" enable-background="new 0 0 35.369 100" xml:space="preserve"><g><path fill="#010101" d="M35.284,34.106l-5.952-8.536L29.324,0.465C29.324,0.208,29.115,0,28.857,0h-8.665
		c-0.258,0-0.465,0.208-0.465,0.464l-0.054,25.105l-5.952,8.537c-0.054,0.078-0.084,0.172-0.084,0.267V47.33h6.03h1.249L21,48.576
		l1.118,16.579l0.005,0.075l-0.004,0.074c-0.239,5.351-6.068,9.373-6.943,9.945c-0.663,0.601-1.158,1.218-1.539,1.812v17.384
		c0,0.181,0.104,0.344,0.268,0.422c0.19,0.091,5.079,2.208,10.98,2.208c0,0,0,0,0.002,0c3.479,0,7.364-0.745,10.229-2.215
		c0.154-0.081,0.253-0.239,0.253-0.415V34.374C35.369,34.278,35.339,34.185,35.284,34.106z"></path><path fill="#010101" d="M11.122,95.025V80.892c0,0-0.191-3.104,2.515-6c0.223-0.235,0.462-0.474,0.725-0.707
		c0,0,6.198-3.911,6.422-8.941l-1.117-16.577h-6.03h-3.245H1.118L0,65.243c0.224,5.03,6.422,8.941,6.422,8.941
		c3.466,3.074,3.241,6.707,3.241,6.707v14.134c0,4.19-9.33,4.19-9.33,4.19V100h10.058h10.392v-0.784
		C20.786,99.216,11.122,99.216,11.122,95.025z"></path></g></svg>