<?xml version="1.0" encoding="iso-8859-1"?>
<!-- Generator: Adobe Illustrator 19.0.0, SVG Export Plug-In . SVG Version: 6.00 Build 0)  -->
<svg version="1.1" id="Capa_1" xmlns="http://www.w3.org/2000/svg" xmlns:xlink="http://www.w3.org/1999/xlink" x="0px" y="0px"
	 viewBox="0 0 512 512" style="enable-background:new 0 0 512 512;" xml:space="preserve">
<path style="fill:#F2F2F2;" d="M461.199,502.723l-24.249-17.146v-143.46c0-4.271-3.462-7.733-7.733-7.733s-7.733,3.462-7.733,7.733
	v143.46l-24.249,17.146c-4.067,2.876-2.032,9.277,2.949,9.277h58.066C463.23,512,465.266,505.599,461.199,502.723z"/>
<path style="fill:#E0DFDE;" d="M458.322,512c4.981,0,7.016-6.401,2.949-9.277l-24.249-17.146v-143.46
	c0-4.271-3.462-7.733-7.733-7.733V512H458.322z"/>
<path style="fill:#F2F2F2;" d="M114.764,502.723l-24.249-17.146v-143.46c0-4.271-3.462-7.733-7.733-7.733s-7.733,3.462-7.733,7.733
	v143.46L50.8,502.723c-4.067,2.876-2.032,9.277,2.949,9.277h58.066C116.796,512,118.831,505.599,114.764,502.723z"/>
<path style="fill:#E0DFDE;" d="M111.815,512c4.981,0,7.015-6.401,2.949-9.277l-24.249-17.146v-143.46
	c0-4.271-3.462-7.733-7.733-7.733V512H111.815z"/>
<path style="fill:#F2F2F2;" d="M132.952,250.452H32.612c-1.806,0-3.314,1.379-3.474,3.178l-6.965,78.088
	c-3.175,35.599,24.869,66.257,60.61,66.257l0,0c35.741,0,63.785-30.657,60.61-66.257l-6.965-78.088
	C136.266,251.831,134.758,250.452,132.952,250.452z"/>
<path style="fill:#E0DFDE;" d="M143.393,331.718l-6.965-78.088c-0.16-1.799-1.668-3.178-3.474-3.178H78.719
	c1.806,0,3.314,1.379,3.474,3.178l6.965,78.088c2.307,25.86-11.868,49.099-33.493,59.887c8.144,4.063,17.339,6.37,27.117,6.37l0,0
	C118.523,397.975,146.567,367.318,143.393,331.718z"/>
<path style="fill:#F2F2F2;" d="M479.387,250.452h-100.34c-1.806,0-3.314,1.379-3.474,3.178l-6.965,78.088
	c-3.175,35.599,24.869,66.257,60.61,66.257l0,0c35.741,0,63.785-30.657,60.61-66.257l-6.965-78.088
	C482.701,251.831,481.194,250.452,479.387,250.452z"/>
<path style="fill:#E0DFDE;" d="M489.827,331.718l-6.965-78.088c-0.16-1.799-1.668-3.178-3.474-3.178h-53.122
	c1.806,0,3.314,1.379,3.475,3.178l6.965,78.088c2.326,26.08-12.113,49.49-34.049,60.155c8.007,3.893,17.004,6.102,26.561,6.102l0,0
	C464.958,397.975,493.002,367.318,489.827,331.718z"/>
<path style="fill:#FF4C4C;" d="M22.172,331.718c-3.175,35.6,24.869,66.257,60.61,66.257l0,0c35.741,0,63.785-30.657,60.61-66.257
	l-0.669-7.505H22.841L22.172,331.718z"/>
<path style="fill:#F33A3A;" d="M143.393,331.718l-0.669-7.505H88.489l0.669,7.505c2.307,25.86-11.868,49.099-33.493,59.887
	c0.985,0.491,1.987,0.954,3.002,1.393c0.098,0.042,0.197,0.082,0.295,0.124c0.914,0.389,1.839,0.757,2.775,1.102
	c0.176,0.065,0.354,0.128,0.531,0.191c0.86,0.309,1.73,0.597,2.608,0.867c0.241,0.074,0.482,0.148,0.725,0.219
	c0.819,0.241,1.648,0.462,2.482,0.669c0.295,0.073,0.588,0.148,0.885,0.217c0.791,0.184,1.591,0.346,2.394,0.499
	c0.336,0.064,0.671,0.133,1.009,0.191c0.781,0.135,1.571,0.245,2.362,0.35c0.359,0.047,0.715,0.104,1.075,0.145
	c0.819,0.094,1.647,0.159,2.476,0.219c0.332,0.024,0.661,0.061,0.995,0.08c1.159,0.066,2.326,0.103,3.503,0.103
	C118.523,397.975,146.567,367.318,143.393,331.718z"/>
<path style="fill:#FF4C4C;" d="M368.607,331.718c-3.175,35.6,24.869,66.257,60.61,66.257l0,0c35.741,0,63.785-30.657,60.61-66.257
	l-0.669-7.505H369.277L368.607,331.718z"/>
<path style="fill:#F33A3A;" d="M489.827,331.718l-0.669-7.505h-53.122l0.669,7.505c2.326,26.08-12.113,49.49-34.049,60.155
	c0.985,0.479,1.986,0.931,3.001,1.358c0.032,0.013,0.064,0.027,0.095,0.04c0.971,0.407,1.956,0.787,2.953,1.145
	c0.081,0.029,0.161,0.059,0.242,0.087c0.94,0.333,1.892,0.64,2.853,0.927c0.139,0.041,0.277,0.085,0.416,0.126
	c0.901,0.262,1.813,0.499,2.731,0.72c0.198,0.048,0.395,0.1,0.594,0.146c0.861,0.198,1.732,0.37,2.608,0.532
	c0.255,0.047,0.507,0.101,0.764,0.145c0.831,0.142,1.672,0.256,2.515,0.365c0.298,0.038,0.593,0.086,0.892,0.12
	c0.842,0.095,1.694,0.16,2.547,0.221c0.298,0.021,0.591,0.055,0.89,0.072c1.145,0.064,2.299,0.1,3.461,0.1
	C464.958,397.975,493.002,367.318,489.827,331.718z"/>
<path style="fill:#4D4A5B;" d="M279.895,129.411V12.525h-47.79v116.886c0,23.178-8.076,45.633-22.839,63.501l0,0
	c-14.763,17.869-22.839,40.323-22.839,63.501v233.499c0,11.834,9.593,21.427,21.427,21.427h96.293
	c11.834,0,21.427-9.593,21.427-21.427V256.414c0-23.178-8.076-45.633-22.839-63.501l0,0
	C287.971,175.044,279.895,152.59,279.895,129.411z"/>
<path style="fill:#444251;" d="M302.734,192.913L302.734,192.913c-14.763-17.869-22.839-40.323-22.839-63.501V12.525h-23.895
	v116.886c1.624,46.724,15.34,52.157,15.34,75.335v285.167c0,11.834-9.593,21.427-21.427,21.427h54.233
	c11.834,0,21.427-9.593,21.427-21.427V256.414C325.574,233.235,317.497,210.781,302.734,192.913z"/>
<path style="fill:#BA9690;" d="M284.299,78.425h-56.598V10.184C227.701,4.56,232.259,0,237.884,0h36.23
	c5.624,0,10.184,4.559,10.184,10.184L284.299,78.425L284.299,78.425z"/>
<path style="fill:#FF6D3A;" d="M325.574,396.925h-80.516c-5.263,0-9.529-4.266-9.529-9.529v-80.61c0-5.263,4.266-9.529,9.529-9.529
	h80.516V396.925z"/>
<rect x="271.34" y="297.26" style="fill:#ED5729;" width="54.23" height="99.67"/>
<path style="fill:#AF8A82;" d="M274.115,0h-18.115v78.425h28.299V10.184C284.299,4.56,279.74,0,274.115,0z"/>
<path style="fill:#9E7F75;" d="M288.665,83.111h-65.333c-3.914,0-7.086-3.173-7.086-7.086v-11.03c0-3.914,3.173-7.086,7.086-7.086
	h65.333c3.914,0,7.086,3.173,7.086,7.086v11.03C295.753,79.938,292.579,83.111,288.665,83.111z"/>
<path style="fill:#927266;" d="M295.753,76.025v-11.03c0-3.914-3.173-7.086-7.086-7.086h-32.667v25.202h32.667
	C292.579,83.111,295.753,79.938,295.753,76.025z"/>
<g>
</g>
<g>
</g>
<g>
</g>
<g>
</g>
<g>
</g>
<g>
</g>
<g>
</g>
<g>
</g>
<g>
</g>
<g>
</g>
<g>
</g>
<g>
</g>
<g>
</g>
<g>
</g>
<g>
</g>
</svg>
